<svg width="230" height="230" viewBox="0 0 230 230" fill="#FFFFFF" xmlns="http://www.w3.org/2000/svg">
<path fill-rule="evenodd" clip-rule="evenodd" d="M93.0695 0.333252H93.6668C95.7886 0.333252 97.8234 1.17611 99.3237 2.6764C100.824 4.17669 101.667 6.21152 101.667 8.33325C101.667 10.455 100.824 12.4898 99.3237 13.9901C97.8234 15.4904 95.7886 16.3333 93.6668 16.3333C73.3255 16.3333 58.8828 16.3546 47.9068 17.8266C37.1868 19.2666 31.0002 21.9759 26.4882 26.4879C21.9762 30.9999 19.2668 37.1866 17.8268 47.9173C16.3548 58.8826 16.3335 73.3253 16.3335 93.6666C16.3335 95.7883 15.4906 97.8231 13.9904 99.3234C12.4901 100.824 10.4552 101.667 8.3335 101.667C6.21176 101.667 4.17693 100.824 2.67664 99.3234C1.17635 97.8231 0.333496 95.7883 0.333496 93.6666V93.0693C0.333496 73.4639 0.333496 57.9333 1.9655 45.7839C3.65083 33.2826 7.19216 23.1599 15.1708 15.1706C23.1602 7.19192 33.2828 3.65059 45.7842 1.96525C57.9442 0.333252 73.4642 0.333252 93.0695 0.333252ZM182.083 17.8266C171.128 16.3546 156.675 16.3333 136.333 16.3333C134.212 16.3333 132.177 15.4904 130.677 13.9901C129.176 12.4898 128.333 10.455 128.333 8.33325C128.333 6.21152 129.176 4.17669 130.677 2.6764C132.177 1.17611 134.212 0.333252 136.333 0.333252H136.931C156.536 0.333252 172.067 0.333252 184.216 1.96525C196.718 3.65059 206.84 7.19192 214.829 15.1706C222.808 23.1599 226.35 33.2826 228.035 45.7839C229.667 57.9439 229.667 73.4639 229.667 93.0693V93.6666C229.667 95.7883 228.824 97.8231 227.324 99.3234C225.823 100.824 223.789 101.667 221.667 101.667C219.545 101.667 217.51 100.824 216.01 99.3234C214.51 97.8231 213.667 95.7883 213.667 93.6666C213.667 73.3253 213.646 58.8826 212.174 47.9066C210.734 37.1866 208.024 30.9999 203.512 26.4879C199 21.9759 192.813 19.2666 182.083 17.8266ZM8.3335 128.333C10.4552 128.333 12.4901 129.176 13.9904 130.676C15.4906 132.177 16.3335 134.212 16.3335 136.333C16.3335 156.675 16.3548 171.128 17.8268 182.093C19.2668 192.813 21.9762 199 26.4882 203.512C31.0002 208.024 37.1868 210.733 47.9175 212.173C58.8828 213.645 73.3255 213.667 93.6668 213.667C95.7886 213.667 97.8234 214.509 99.3237 216.01C100.824 217.51 101.667 219.545 101.667 221.667C101.667 223.788 100.824 225.823 99.3237 227.323C97.8234 228.824 95.7886 229.667 93.6668 229.667H93.0695C73.4642 229.667 57.9335 229.667 45.7842 228.035C33.2828 226.349 23.1602 222.808 15.1708 214.829C7.19216 206.84 3.65083 196.717 1.9655 184.216C0.333496 172.056 0.333496 156.536 0.333496 136.931V136.333C0.333496 134.212 1.17635 132.177 2.67664 130.676C4.17693 129.176 6.21176 128.333 8.3335 128.333ZM221.667 128.333C223.789 128.333 225.823 129.176 227.324 130.676C228.824 132.177 229.667 134.212 229.667 136.333V136.931C229.667 156.536 229.667 172.067 228.035 184.216C226.35 196.717 222.808 206.84 214.829 214.829C206.84 222.808 196.718 226.349 184.216 228.035C172.056 229.667 156.536 229.667 136.931 229.667H136.333C134.212 229.667 132.177 228.824 130.677 227.323C129.176 225.823 128.333 223.788 128.333 221.667C128.333 219.545 129.176 217.51 130.677 216.01C132.177 214.509 134.212 213.667 136.333 213.667C156.675 213.667 171.128 213.645 182.094 212.173C192.814 210.733 199 208.024 203.512 203.512C208.024 199 210.734 192.813 212.174 182.083C213.646 171.128 213.667 156.675 213.667 136.333C213.667 134.212 214.51 132.177 216.01 130.676C217.51 129.176 219.545 128.333 221.667 128.333Z" fill="white"/>
<path fill-rule="evenodd" clip-rule="evenodd" d="M65 112.253C65 86.1558 86.1558 65 112.253 65H117.747C143.844 65 165 86.1558 165 112.253V117.747C165 143.844 143.844 165 117.747 165H112.253C86.1558 165 65 143.844 65 117.747V112.253ZM112.253 82.5824C95.8663 82.5824 82.5824 95.8663 82.5824 112.253V117.747C82.5824 134.134 95.8663 147.418 112.253 147.418H117.747C134.134 147.418 147.418 134.134 147.418 117.747V112.253C147.418 95.8663 134.134 82.5824 117.747 82.5824H112.253Z" fill="white"/>
<path d="M184 56C184 61.5228 179.523 66 174 66C168.477 66 164 61.5228 164 56C164 50.4772 168.477 46 174 46C179.523 46 184 50.4772 184 56Z" fill="white"/>
</svg>
