<svg width="15" height="15" viewBox="0 0 15 15" fill="none" xmlns="http://www.w3.org/2000/svg">
<path d="M5.15072 0.411165C3.60331 0.937205 2.26884 1.93565 1.3433 3.25983C0.417757 4.58402 -0.0500594 6.16416 0.00856291 7.76815C0.0671852 9.37213 0.649156 10.9154 1.66899 12.1713C2.68883 13.4272 4.09278 14.3296 5.67462 14.7458C6.95705 15.0701 8.30066 15.0843 9.58995 14.7873C10.7579 14.5302 11.8377 13.9803 12.7237 13.1914C13.6457 12.3452 14.315 11.2688 14.6596 10.0779C15.0339 8.7827 15.1006 7.42072 14.8544 6.09641H7.65285V9.0238H11.8235C11.7401 9.4907 11.5615 9.93632 11.2983 10.334C11.0351 10.7317 10.6928 11.0732 10.2917 11.3382C9.7825 11.6685 9.20837 11.8906 8.60628 11.9903C8.00246 12.1004 7.38311 12.1004 6.77928 11.9903C6.16724 11.8665 5.58828 11.6189 5.07933 11.2635C4.2616 10.6963 3.64759 9.89043 3.32493 8.96096C2.99691 8.01407 2.99691 6.98757 3.32493 6.04068C3.55461 5.37697 3.93429 4.77266 4.43565 4.27286C5.00939 3.6904 5.73576 3.27406 6.53507 3.06951C7.33438 2.86495 8.17574 2.8801 8.96684 3.11328C9.58487 3.29911 10.15 3.62392 10.6172 4.06181C11.0874 3.60336 11.5569 3.14372 12.0255 2.68289C12.2675 2.43509 12.5313 2.19914 12.7697 1.94541C12.0564 1.2951 11.2193 0.78904 10.3062 0.45622C8.64343 -0.135437 6.82402 -0.151337 5.15072 0.411165Z" fill="white"/>
<path d="M5.15072 0.411165C6.82389 -0.151719 8.64332 -0.136248 10.3063 0.455024C11.2195 0.790104 12.0563 1.2986 12.7685 1.95133C12.5265 2.20506 12.2712 2.44219 12.0244 2.68881C11.5549 3.14805 11.0858 3.60573 10.6172 4.06181C10.15 3.62392 9.58487 3.29911 8.96684 3.11328C8.176 2.87928 7.3347 2.86325 6.53518 3.06697C5.73566 3.27068 5.00884 3.68626 4.43447 4.26811C3.93312 4.76791 3.55343 5.37221 3.32376 6.03593L0.815569 4.13294C1.71335 2.38832 3.26776 1.05382 5.15072 0.411165Z" fill="#E33629"/>
<path d="M0.150028 6.01815C0.284741 5.36339 0.508641 4.72932 0.815569 4.13294L3.32368 6.04067C2.99565 6.98756 2.99565 8.01407 3.32368 8.96096C2.48802 9.59331 1.65196 10.2288 0.81549 10.8675C0.0473661 9.3692 -0.186898 7.66207 0.150028 6.01815Z" fill="#F8BD00"/>
<path d="M7.65285 6.09521H14.8544C15.1006 7.41953 15.0339 8.78151 14.6596 10.0767C14.315 11.2676 13.6457 12.3441 12.7237 13.1902C11.9142 12.5713 11.1012 11.9571 10.2917 11.3382C10.693 11.073 11.0355 10.731 11.2987 10.3329C11.562 9.93482 11.7404 9.48874 11.8235 9.02142H7.65285C7.65164 8.04681 7.65285 7.07101 7.65285 6.09521Z" fill="#587DBD"/>
<path d="M0.814309 10.8675C1.65077 10.2352 2.48684 9.59964 3.32249 8.96096C3.6458 9.89075 4.2607 10.6966 5.07933 11.2635C5.58986 11.6173 6.17006 11.8628 6.7829 11.9844C7.38672 12.0944 8.00607 12.0944 8.60989 11.9844C9.21199 11.8847 9.78611 11.6625 10.2953 11.3323C11.1048 11.9512 11.9178 12.5654 12.7273 13.1843C11.8415 13.9736 10.7617 14.5239 9.59357 14.7814C8.30427 15.0784 6.96066 15.0641 5.67823 14.7399C4.66395 14.4745 3.71654 14.0067 2.89539 13.3657C2.02633 12.6894 1.31647 11.8373 0.814309 10.8675Z" fill="#319F43"/>
</svg>
