<svg width="104" height="17" viewBox="0 0 104 17" fill="none" xmlns="http://www.w3.org/2000/svg">
<path d="M67.3751 12.6696H65.7417V0H67.3751V12.6696Z" fill="#3137C9"/>
<path d="M61.6976 10.2584V8.22746H60.5827C58.2205 8.22746 57.0394 8.86987 57.0394 10.1547C57.0394 10.6214 57.2122 10.9815 57.5579 11.235C57.9036 11.4827 58.3703 11.6066 58.958 11.6066C59.4938 11.6066 60.0123 11.4856 60.5136 11.2436C61.0148 11.0016 61.4095 10.6732 61.6976 10.2584ZM61.6976 11.7276C60.8679 12.4996 59.7992 12.8856 58.4913 12.8856C57.581 12.8856 56.832 12.6408 56.2443 12.151C55.6566 11.6556 55.3628 11.0189 55.3628 10.2411C55.3628 8.09783 57.2094 7.02618 60.9025 7.02618H61.6976C61.6976 6.36937 61.663 5.89405 61.5939 5.60021C61.5247 5.30061 61.3317 5.05287 61.0148 4.85697C60.698 4.66108 60.1938 4.56314 59.5024 4.56314C58.0505 4.56314 57.3015 5.08167 57.2554 6.11875H55.6307C55.7517 4.23473 57.0711 3.29272 59.5889 3.29272C60.7642 3.29272 61.6803 3.52607 62.3371 3.99275C62.9939 4.45943 63.3223 5.37551 63.3223 6.74099V12.6696H61.6976V11.7276Z" fill="#3137C9"/>
<path d="M47.671 4.66685C48.4834 3.75076 49.3966 3.29272 50.4106 3.29272C52.479 3.29272 53.5132 4.4191 53.5132 6.67185V12.6696H51.8798V6.74099C51.8798 5.99199 51.7444 5.45329 51.4736 5.12489C51.2086 4.79648 50.7707 4.63228 50.16 4.63228C49.3303 4.63228 48.5006 5.122 47.671 6.10146V12.6696H46.0376V3.50014H47.671V4.66685Z" fill="#3137C9"/>
<path d="M39.9017 3.29272C41.2095 3.29272 42.2523 3.71043 43.0302 4.54585C43.8137 5.38127 44.2055 6.56238 44.2055 8.08918C44.2055 9.61022 43.8137 10.7913 43.0302 11.6325C42.2523 12.4679 41.2095 12.8856 39.9017 12.8856C38.5996 12.8856 37.5567 12.4679 36.7732 11.6325C35.9953 10.7913 35.6064 9.61022 35.6064 8.08918C35.6064 6.56238 35.9953 5.38127 36.7732 4.54585C37.5567 3.71043 38.5996 3.29272 39.9017 3.29272ZM39.9017 11.6066C40.6795 11.6066 41.3103 11.3127 41.7943 10.7251C42.2783 10.1316 42.5203 9.25301 42.5203 8.08918C42.5203 6.9196 42.2783 6.04097 41.7943 5.45329C41.3103 4.85986 40.6795 4.56314 39.9017 4.56314C39.1238 4.56314 38.493 4.85986 38.009 5.45329C37.525 6.04097 37.283 6.9196 37.283 8.08918C37.283 9.25301 37.525 10.1316 38.009 10.7251C38.493 11.3127 39.1238 11.6066 39.9017 11.6066Z" fill="#3137C9"/>
<path d="M30.6109 12.8856C28.1047 12.8856 26.7939 11.9004 26.6787 9.92999H28.3121C28.3236 11.0477 29.0841 11.6066 30.5937 11.6066C31.2678 11.6066 31.7805 11.4683 32.132 11.1918C32.4892 10.9094 32.6678 10.558 32.6678 10.1374C32.6678 9.72257 32.495 9.43161 32.1493 9.26453C31.8036 9.09169 31.0891 8.86987 30.006 8.59908C28.9286 8.32829 28.1393 8.02581 27.638 7.69164C27.1425 7.35747 26.8948 6.7698 26.8948 5.92862C26.8948 5.1681 27.203 4.54009 27.8195 4.0446C28.4417 3.54335 29.2714 3.29272 30.3085 3.29272C32.711 3.29272 33.9382 4.14831 33.9901 5.85948H32.3653C32.3077 4.99525 31.6595 4.56314 30.4208 4.56314C29.8735 4.56314 29.4183 4.66685 29.0553 4.87426C28.6981 5.08167 28.5195 5.38415 28.5195 5.7817C28.5195 6.13891 28.6578 6.39818 28.9343 6.5595C29.2109 6.71506 29.9023 6.92824 31.0085 7.19903C32.1205 7.46406 32.9444 7.77518 33.4802 8.13239C34.0218 8.48961 34.2925 9.10609 34.2925 9.98184C34.2925 10.8173 33.9584 11.5115 33.29 12.0646C32.6275 12.612 31.7344 12.8856 30.6109 12.8856Z" fill="#3137C9"/>
<path d="M26.2028 4.98661C25.9723 4.91747 25.6411 4.8829 25.2089 4.8829C24.3793 4.8829 23.6677 5.3179 23.0743 6.18788V12.6696H21.4409V3.50014H23.0743V4.77919C23.7599 3.78821 24.555 3.29272 25.4596 3.29272C25.69 3.29272 25.9378 3.31577 26.2028 3.36186V4.98661Z" fill="#3137C9"/>
<path d="M15.4869 12.8856C14.1388 12.8856 13.0556 12.4651 12.2375 11.6239C11.4193 10.7769 11.0103 9.5987 11.0103 8.08918C11.0103 6.59119 11.4049 5.41872 12.1942 4.57178C12.9893 3.71908 14.0264 3.29272 15.3055 3.29272C16.6133 3.29272 17.6562 3.71043 18.434 4.54585C19.2175 5.38127 19.6093 6.56238 19.6093 8.08918V8.47809H12.7041C12.7733 9.5382 13.0642 10.3246 13.577 10.8374C14.0955 11.3502 14.7322 11.6066 15.4869 11.6066C16.0573 11.6066 16.5701 11.4625 17.0253 11.1745C17.4862 10.8806 17.7282 10.4658 17.7512 9.92999H19.4365C19.3097 10.8749 18.8805 11.6037 18.1488 12.1165C17.4228 12.6293 16.5355 12.8856 15.4869 12.8856ZM17.8895 7.19903C17.757 6.31752 17.4603 5.65782 16.9993 5.21995C16.5384 4.78208 15.9738 4.56314 15.3055 4.56314C14.6544 4.56314 14.0955 4.78208 13.6289 5.21995C13.1622 5.65206 12.8655 6.31176 12.7387 7.19903H17.8895Z" fill="#3137C9"/>
<path d="M0 0H4.72732C5.76439 0 6.6315 0.0979457 7.32864 0.293837C8.03155 0.483967 8.58753 0.901677 8.9966 1.54697C9.40567 2.18649 9.6102 2.9038 9.6102 3.69889C9.6102 4.97795 9.20401 5.94876 8.39164 6.61133C7.57927 7.27391 6.40392 7.6052 4.8656 7.6052H1.6766V12.6696H0V0ZM1.6766 6.10144H4.88288C5.96028 6.10144 6.72656 5.89979 7.18172 5.49648C7.64264 5.09318 7.87311 4.51126 7.87311 3.75074C7.87311 3.24373 7.74635 2.79433 7.49285 2.40255C7.23934 2.01077 6.91669 1.76302 6.52491 1.65932C6.13889 1.55561 5.58002 1.50375 4.84831 1.50375H1.6766V6.10144Z" fill="#3137C9"/>
<path d="M103.918 11.9609C103.918 14.9108 102.587 16.3858 99.9254 16.3858C98.7731 16.3858 97.8628 16.1351 97.1944 15.6339C96.5319 15.1326 96.2006 14.4585 96.2006 13.6116H97.8858C97.8858 14.6141 98.5599 15.1153 99.9081 15.1153C100.669 15.1153 101.256 14.9051 101.671 14.4845C102.086 14.0696 102.293 13.2515 102.293 12.0301V11.572C101.567 12.4478 100.695 12.8856 99.6748 12.8856C98.4764 12.8856 97.5488 12.4593 96.892 11.6066C96.2351 10.7539 95.9067 9.60446 95.9067 8.15832C95.9067 6.66033 96.2726 5.47634 97.0043 4.60635C97.7418 3.7306 98.6665 3.29272 99.7785 3.29272C100.769 3.29272 101.608 3.59808 102.293 4.2088V3.50014H103.918V11.9609ZM102.293 10.0337V5.67799C101.59 4.93476 100.787 4.56314 99.8822 4.56314C99.185 4.56314 98.6262 4.86562 98.2056 5.47058C97.7908 6.06977 97.5833 6.96569 97.5833 8.15832C97.5833 9.28758 97.7792 10.146 98.171 10.7337C98.5686 11.3156 99.1159 11.6066 99.813 11.6066C100.723 11.6066 101.55 11.0823 102.293 10.0337Z" fill="white"/>
<path d="M90.3499 3.29272C91.6578 3.29272 92.7006 3.71043 93.4784 4.54585C94.262 5.38127 94.6537 6.56238 94.6537 8.08918C94.6537 9.61022 94.262 10.7913 93.4784 11.6325C92.7006 12.4679 91.6578 12.8856 90.3499 12.8856C89.0478 12.8856 88.005 12.4679 87.2214 11.6325C86.4436 10.7913 86.0547 9.61022 86.0547 8.08918C86.0547 6.56238 86.4436 5.38127 87.2214 4.54585C88.005 3.71043 89.0478 3.29272 90.3499 3.29272ZM90.3499 11.6066C91.1277 11.6066 91.7586 11.3127 92.2426 10.7251C92.7265 10.1316 92.9685 9.25301 92.9685 8.08918C92.9685 6.9196 92.7265 6.04097 92.2426 5.45329C91.7586 4.85986 91.1277 4.56314 90.3499 4.56314C89.5721 4.56314 88.9412 4.85986 88.4572 5.45329C87.9733 6.04097 87.7313 6.9196 87.7313 8.08918C87.7313 9.25301 87.9733 10.1316 88.4572 10.7251C88.9412 11.3127 89.5721 11.6066 90.3499 11.6066Z" fill="white"/>
<path d="M84.2223 12.6696H82.5889V0H84.2223V12.6696Z" fill="white"/>
<path d="M80.4719 8.98796C80.4719 10.1748 80.0686 11.0851 79.262 11.7189C78.4554 12.3527 77.2829 12.6696 75.7446 12.6696H71V0H75.5113C76.8595 0 77.9196 0.288076 78.6916 0.864227C79.4637 1.44038 79.8497 2.2297 79.8497 3.23221C79.8497 4.45365 79.2418 5.35821 78.0262 5.94588C78.8443 6.15329 79.455 6.53643 79.8583 7.0953C80.2674 7.64841 80.4719 8.27929 80.4719 8.98796ZM72.6766 5.30635H75.494C76.4216 5.30635 77.1043 5.15943 77.5422 4.8656C77.9801 4.566 78.199 4.07051 78.199 3.37913C78.199 2.75688 77.9858 2.2902 77.5595 1.97908C77.1331 1.6622 76.3928 1.50375 75.3384 1.50375H72.6766V5.30635ZM72.6766 11.1658H75.7273C77.7323 11.1658 78.7348 10.4399 78.7348 8.98796C78.7348 8.2332 78.5015 7.68298 78.0348 7.33729C77.5739 6.98583 76.7327 6.81011 75.5113 6.81011H72.6766V11.1658Z" fill="white"/>
</svg>
